<?xml version="1.0" encoding="UTF-8" standalone="no"?>
<!DOCTYPE svg PUBLIC "-//W3C//DTD SVG 1.1//EN" "http://www.w3.org/Graphics/SVG/1.1/DTD/svg11.dtd">
<svg width="100%" height="100%" viewBox="0 0 1535 243" version="1.1" xmlns="http://www.w3.org/2000/svg" xmlns:xlink="http://www.w3.org/1999/xlink" xml:space="preserve" xmlns:serif="http://www.serif.com/" style="fill-rule:evenodd;clip-rule:evenodd;stroke-miterlimit:10;">
    <g transform="matrix(5.55556,0,0,5.55556,0,0)">
        <g transform="matrix(1,0,0,1,-12.44,-4.54)">
            <path d="M102.09,26.48L102.09,12L105.26,12C106.72,11.948 108.182,12.052 109.62,12.31C110.421,12.486 111.177,12.826 111.84,13.31C112.675,13.952 113.33,14.8 113.74,15.77C114.189,16.86 114.41,18.031 114.39,19.21C114.409,20.382 114.188,21.546 113.74,22.63C113.324,23.597 112.671,24.443 111.84,25.09C111.189,25.562 110.452,25.902 109.67,26.09C108.43,26.339 107.164,26.443 105.9,26.4L102.09,26.4L102.09,26.48ZM104.44,24.35L106.44,24.35C107.262,24.376 108.084,24.305 108.89,24.14C109.414,24.006 109.9,23.753 110.31,23.4C110.859,22.93 111.284,22.332 111.55,21.66C111.835,20.882 111.974,20.058 111.96,19.23C111.976,18.402 111.837,17.577 111.55,16.8C111.287,16.124 110.861,15.522 110.31,15.05C109.882,14.698 109.379,14.448 108.84,14.32C107.962,14.143 107.066,14.069 106.17,14.1L104.46,14.1L104.44,24.35Z" style="fill:rgb(179,197,192);fill-rule:nonzero;"/>
        </g>
        <g transform="matrix(1,0,0,1,-12.44,-4.54)">
            <path d="M129.86,26.48L128.21,22.75L122.47,22.75L120.79,26.48L118.31,26.48L125.31,11.42L132.31,26.48L129.86,26.48ZM123.34,20.79L127.34,20.79L125.86,17.48C125.767,17.267 125.677,17.027 125.59,16.76C125.5,16.48 125.41,16.18 125.31,15.84C125.23,16.16 125.15,16.45 125.06,16.73C124.97,17.01 124.88,17.25 124.79,17.48L123.34,20.79Z" style="fill:rgb(179,197,192);fill-rule:nonzero;"/>
        </g>
        <g transform="matrix(1,0,0,1,-12.44,-4.54)">
            <path d="M140.83,14L140.83,26.48L138.47,26.48L138.47,14L134.62,14L134.62,12L144.62,12L144.62,14L140.83,14Z" style="fill:rgb(179,197,192);fill-rule:nonzero;"/>
        </g>
        <g transform="matrix(1,0,0,1,-12.44,-4.54)">
            <path d="M158.11,26.48L156.46,22.75L150.72,22.75L149,26.48L146.52,26.48L153.52,11.42L160.52,26.48L158.11,26.48ZM151.59,20.79L155.59,20.79L154.11,17.48C154.017,17.267 153.927,17.027 153.84,16.76C153.75,16.48 153.65,16.18 153.56,15.84C153.48,16.16 153.4,16.45 153.31,16.73C153.22,17.01 153.13,17.25 153.04,17.48L151.59,20.79Z" style="fill:rgb(179,197,192);fill-rule:nonzero;"/>
        </g>
        <g transform="matrix(1,0,0,1,-12.44,-4.54)">
            <path d="M184.74,26.48L183.1,22.75L177.36,22.75L175.68,26.48L173.2,26.48L180.2,11.42L187.2,26.48L184.74,26.48ZM178.23,20.79L182.23,20.79L180.74,17.48C180.66,17.27 180.57,17.03 180.48,16.76C180.39,16.49 180.29,16.18 180.2,15.84C180.12,16.16 180.04,16.45 179.95,16.73C179.86,17.01 179.77,17.25 179.67,17.48L178.23,20.79Z" style="fill:rgb(179,197,192);fill-rule:nonzero;"/>
        </g>
        <g transform="matrix(1,0,0,1,-12.44,-4.54)">
            <path d="M192.14,26.48L192.14,11.42L201.35,20.28C201.6,20.53 201.85,20.79 202.11,21.08C202.37,21.37 202.64,21.68 202.92,22.08L202.92,12L205.1,12L205.1,27.05L195.7,18.05C195.45,17.8 195.21,17.55 194.98,17.28C194.75,17.01 194.52,16.72 194.31,16.43L194.31,26.48L192.14,26.48Z" style="fill:rgb(179,197,192);fill-rule:nonzero;"/>
        </g>
        <g transform="matrix(1,0,0,1,-12.44,-4.54)">
            <path d="M221.55,26.48L219.9,22.75L214.16,22.75L212.48,26.48L210,26.48L217,11.42L224,26.48L221.55,26.48ZM215,20.79L219,20.79L217.52,17.48C217.427,17.267 217.337,17.027 217.25,16.76C217.16,16.48 217.06,16.18 216.97,15.84C216.89,16.16 216.81,16.45 216.72,16.73C216.63,17.01 216.54,17.25 216.45,17.48L215,20.79Z" style="fill:rgb(179,197,192);fill-rule:nonzero;"/>
        </g>
        <g transform="matrix(1,0,0,1,-12.44,-4.54)">
            <path d="M228.94,26.48L228.94,12L231.3,12L231.3,24.37L236.57,24.37L236.57,26.48L228.94,26.48Z" style="fill:rgb(179,197,192);fill-rule:nonzero;"/>
        </g>
        <g transform="matrix(1,0,0,1,-12.44,-4.54)">
            <path d="M243.67,26.48L243.67,19.85L238.79,12L241.26,12L244.26,16.92L244.53,17.41L244.87,18.08C244.96,17.85 245.06,17.63 245.16,17.42C245.256,17.228 245.363,17.041 245.48,16.86L248.64,12L251,12L246,19.86L246,26.49L243.67,26.48Z" style="fill:rgb(179,197,192);fill-rule:nonzero;"/>
        </g>
        <g transform="matrix(1,0,0,1,-12.44,-4.54)">
            <path d="M255.28,23.58L257.17,22.71C257.311,23.309 257.667,23.835 258.17,24.19C258.706,24.552 259.344,24.731 259.99,24.7C260.598,24.734 261.196,24.525 261.65,24.12C262.078,23.714 262.305,23.139 262.27,22.55C262.27,21.7 261.57,20.94 260.16,20.28L259.7,20.06C258.512,19.562 257.43,18.842 256.51,17.94C255.972,17.293 255.688,16.471 255.71,15.63C255.672,14.545 256.11,13.495 256.91,12.76C257.784,12.003 258.915,11.609 260.07,11.66C261.002,11.63 261.926,11.844 262.75,12.28C263.448,12.67 263.979,13.304 264.24,14.06L262.4,15.01C262.164,14.609 261.839,14.267 261.45,14.01C261.087,13.795 260.672,13.684 260.25,13.69C259.702,13.664 259.164,13.843 258.74,14.19C258.367,14.525 258.162,15.009 258.18,15.51C258.18,16.39 259,17.2 260.64,17.95L260.94,18.09C262.034,18.525 263.031,19.174 263.87,20C264.413,20.664 264.697,21.503 264.67,22.36C264.731,23.589 264.257,24.786 263.37,25.64C262.402,26.476 261.148,26.909 259.87,26.85C258.806,26.885 257.757,26.588 256.87,26C256.057,25.42 255.489,24.557 255.28,23.58Z" style="fill:rgb(179,197,192);fill-rule:nonzero;"/>
        </g>
        <g transform="matrix(1,0,0,1,-12.44,-4.54)">
            <rect x="270.83" y="12" width="2.35" height="14.48" style="fill:rgb(179,197,192);fill-rule:nonzero;"/>
        </g>
        <g transform="matrix(1,0,0,1,-12.44,-4.54)">
            <path d="M279.29,23.58L281.17,22.71C281.316,23.307 281.671,23.832 282.17,24.19C282.706,24.552 283.344,24.731 283.99,24.7C284.601,24.732 285.201,24.524 285.66,24.12C286.081,23.709 286.307,23.138 286.28,22.55C286.28,21.7 285.57,20.94 284.16,20.28C283.96,20.18 283.81,20.1 283.7,20.06C282.513,19.559 281.431,18.84 280.51,17.94C279.972,17.293 279.688,16.471 279.71,15.63C279.671,14.543 280.115,13.492 280.92,12.76C281.789,12.003 282.918,11.608 284.07,11.66C285.002,11.629 285.926,11.843 286.75,12.28C287.448,12.673 287.981,13.305 288.25,14.06L286.4,15.01C286.165,14.607 285.84,14.265 285.45,14.01C285.091,13.795 284.679,13.684 284.26,13.69C283.712,13.661 283.172,13.839 282.75,14.19C282.372,14.521 282.166,15.008 282.19,15.51C282.19,16.39 283.01,17.2 284.64,17.95L284.94,18.09C286.034,18.525 287.031,19.174 287.87,20C288.413,20.664 288.697,21.503 288.67,22.36C288.731,23.589 288.257,24.786 287.37,25.64C286.402,26.476 285.148,26.909 283.87,26.85C282.806,26.885 281.757,26.588 280.87,26C280.06,25.419 279.497,24.555 279.29,23.58Z" style="fill:rgb(179,197,192);fill-rule:nonzero;"/>
        </g>
        <g transform="matrix(1,0,0,1,-12.44,-4.54)">
            <rect x="101.68" y="33.7" width="1.19" height="7.3" style="fill:white;fill-rule:nonzero;"/>
        </g>
        <g transform="matrix(1,0,0,1,-12.44,-4.54)">
            <path d="M114.52,41L114.52,33.41L119.16,37.87C119.29,37.99 119.41,38.13 119.54,38.27C119.67,38.41 119.81,38.58 119.95,38.76L119.95,33.7L121.05,33.7L121.05,41.28L116.32,36.74L115.95,36.35C115.831,36.213 115.721,36.07 115.62,35.92L115.62,41L114.52,41Z" style="fill:white;fill-rule:nonzero;"/>
        </g>
        <g transform="matrix(1,0,0,1,-12.44,-4.54)">
            <path d="M138.53,35.47C138.218,35.194 137.859,34.978 137.47,34.83C137.094,34.682 136.694,34.608 136.29,34.61C135.561,34.583 134.854,34.862 134.34,35.38C133.361,36.504 133.361,38.196 134.34,39.32C134.818,39.828 135.492,40.109 136.19,40.09C136.611,40.09 137.028,40.012 137.42,39.86C137.829,39.689 138.207,39.452 138.54,39.16L138.54,40.5C138.238,40.728 137.9,40.904 137.54,41.02C137.144,41.135 136.733,41.192 136.32,41.19C135.79,41.196 135.264,41.101 134.77,40.91C133.832,40.561 133.081,39.836 132.7,38.91C132.332,37.944 132.332,36.876 132.7,35.91C132.89,35.445 133.172,35.023 133.53,34.67C133.886,34.317 134.312,34.041 134.78,33.86C135.264,33.669 135.78,33.574 136.3,33.58C136.718,33.576 137.133,33.641 137.53,33.77C137.932,33.901 138.312,34.09 138.66,34.33L138.53,35.47Z" style="fill:white;fill-rule:nonzero;"/>
        </g>
        <g transform="matrix(1,0,0,1,-12.44,-4.54)">
            <path d="M157.44,37.36C157.441,37.864 157.343,38.364 157.15,38.83C156.948,39.293 156.659,39.714 156.3,40.07C155.933,40.425 155.502,40.707 155.03,40.9C154.068,41.289 152.992,41.289 152.03,40.9C151.559,40.703 151.129,40.422 150.76,40.07C150.4,39.717 150.114,39.295 149.92,38.83C149.722,38.366 149.623,37.865 149.63,37.36C149.625,36.852 149.723,36.348 149.92,35.88C150.114,35.415 150.4,34.993 150.76,34.64C151.125,34.285 151.557,34.007 152.03,33.82C152.507,33.628 153.016,33.529 153.53,33.53C154.041,33.529 154.547,33.627 155.02,33.82C155.493,34.007 155.925,34.285 156.29,34.64C156.65,34.999 156.939,35.423 157.14,35.89C157.336,36.355 157.438,36.855 157.44,37.36ZM156.2,37.36C156.194,37.017 156.126,36.679 156,36.36C155.867,36.028 155.67,35.726 155.42,35.47C154.672,34.69 153.513,34.455 152.52,34.88C152.191,35.011 151.894,35.212 151.65,35.47C151.404,35.725 151.207,36.023 151.07,36.35C150.937,36.688 150.87,37.047 150.87,37.41C150.863,38.131 151.144,38.826 151.65,39.34C151.892,39.595 152.185,39.796 152.51,39.93C152.826,40.065 153.166,40.137 153.51,40.14C153.854,40.14 154.195,40.069 154.51,39.93C154.838,39.796 155.135,39.595 155.38,39.34C155.63,39.084 155.827,38.782 155.96,38.45C156.112,38.106 156.193,37.736 156.2,37.36Z" style="fill:white;fill-rule:nonzero;"/>
        </g>
        <g transform="matrix(1,0,0,1,-12.44,-4.54)">
            <path d="M169.86,37.73L169.86,41L168.75,41L168.75,33.7L170.41,33.7C170.789,33.691 171.167,33.721 171.54,33.79C171.785,33.846 172.017,33.951 172.22,34.1C172.45,34.282 172.629,34.519 172.74,34.79C172.87,35.076 172.935,35.386 172.93,35.7C172.96,36.195 172.811,36.685 172.51,37.08C172.182,37.432 171.73,37.644 171.25,37.67L173.77,41L172.43,41L170,37.73L169.86,37.73ZM169.94,36.81L170.15,36.81C170.579,36.849 171.01,36.773 171.4,36.59C171.627,36.398 171.743,36.105 171.71,35.81C171.743,35.49 171.62,35.174 171.38,34.96C171.004,34.755 170.576,34.668 170.15,34.71L169.94,34.71L169.94,36.81Z" style="fill:white;fill-rule:nonzero;"/>
        </g>
        <g transform="matrix(1,0,0,1,-12.44,-4.54)">
            <path d="M185.53,37.72L185.53,41L184.42,41L184.42,33.7L186.22,33.7C186.612,33.686 187.004,33.713 187.39,33.78C187.626,33.836 187.849,33.934 188.05,34.07C188.284,34.245 188.468,34.48 188.58,34.75C188.847,35.358 188.847,36.052 188.58,36.66C188.47,36.935 188.287,37.173 188.05,37.35C187.851,37.487 187.627,37.582 187.39,37.63C187.004,37.702 186.612,37.732 186.22,37.72L185.53,37.72ZM185.61,36.72L185.91,36.72C186.361,36.757 186.815,36.682 187.23,36.5C187.467,36.324 187.593,36.034 187.56,35.74C187.589,35.426 187.457,35.117 187.21,34.92C186.806,34.725 186.357,34.642 185.91,34.68L185.61,34.68L185.61,36.72Z" style="fill:white;fill-rule:nonzero;"/>
        </g>
        <g transform="matrix(1,0,0,1,-12.44,-4.54)">
            <path d="M207.29,37.36C207.298,38.381 206.886,39.362 206.15,40.07C205.783,40.425 205.352,40.707 204.88,40.9C204.406,41.091 203.901,41.189 203.39,41.19C202.876,41.191 202.367,41.092 201.89,40.9C201.421,40.706 200.994,40.424 200.63,40.07C200.264,39.72 199.975,39.298 199.78,38.83C199.586,38.364 199.488,37.864 199.49,37.36C199.489,36.853 199.588,36.35 199.78,35.88C199.975,35.412 200.264,34.99 200.63,34.64C200.99,34.284 201.418,34.004 201.89,33.82C202.852,33.431 203.928,33.431 204.89,33.82C205.362,34.004 205.79,34.284 206.15,34.64C206.513,34.997 206.802,35.421 207,35.89C207.193,36.356 207.291,36.856 207.29,37.36ZM206.05,37.36C206.049,37.017 205.981,36.677 205.85,36.36C205.717,36.028 205.52,35.726 205.27,35.47C205.031,35.216 204.741,35.015 204.42,34.88C204.104,34.745 203.764,34.673 203.42,34.67C202.709,34.675 202.029,34.963 201.53,35.47C201.284,35.723 201.09,36.022 200.96,36.35C200.823,36.686 200.755,37.047 200.76,37.41C200.755,38.129 201.032,38.822 201.53,39.34C202.283,40.119 203.444,40.354 204.44,39.93C204.765,39.796 205.058,39.595 205.3,39.34C205.55,39.084 205.747,38.782 205.88,38.45C206.013,38.103 206.071,37.731 206.05,37.36Z" style="fill:white;fill-rule:nonzero;"/>
        </g>
        <g transform="matrix(1,0,0,1,-12.44,-4.54)">
            <path d="M219.72,37.73L219.72,41L218.61,41L218.61,33.7L220.26,33.7C220.639,33.691 221.017,33.721 221.39,33.79C221.636,33.844 221.868,33.949 222.07,34.1C222.3,34.284 222.481,34.521 222.6,34.79C222.722,35.078 222.783,35.388 222.78,35.7C222.81,36.195 222.661,36.685 222.36,37.08C222.037,37.432 221.588,37.644 221.11,37.67L223.62,41L222.28,41L219.85,37.74L219.72,37.73ZM219.79,36.81L220,36.81C220.429,36.846 220.859,36.771 221.25,36.59C221.473,36.395 221.588,36.104 221.56,35.81C221.591,35.489 221.464,35.172 221.22,34.96C220.848,34.756 220.423,34.669 220,34.71L219.78,34.71L219.79,36.81Z" style="fill:white;fill-rule:nonzero;"/>
        </g>
        <g transform="matrix(1,0,0,1,-12.44,-4.54)">
            <path d="M239.09,41L238.27,39.12L235.38,39.12L234.53,41L233.28,41L236.82,33.42L240.35,41L239.09,41ZM235.81,38.14L237.81,38.14L237.06,36.47C237.06,36.37 236.97,36.24 236.93,36.11C236.875,35.956 236.828,35.799 236.79,35.64C236.79,35.8 236.7,35.95 236.66,36.09C236.62,36.23 236.57,36.36 236.52,36.47L235.81,38.14Z" style="fill:white;fill-rule:nonzero;"/>
        </g>
        <g transform="matrix(1,0,0,1,-12.44,-4.54)">
            <path d="M252.79,34.7L252.79,41L251.6,41L251.6,34.7L249.66,34.7L249.66,33.7L254.72,33.7L254.72,34.7L252.79,34.7Z" style="fill:white;fill-rule:nonzero;"/>
        </g>
        <g transform="matrix(1,0,0,1,-12.44,-4.54)">
            <path d="M265.58,41L265.58,33.7L269.65,33.7L269.65,34.7L266.76,34.7L266.76,36.53L269.65,36.53L269.65,37.53L266.76,37.53L266.76,39.89L269.65,39.89L269.65,41L265.58,41Z" style="fill:white;fill-rule:nonzero;"/>
        </g>
        <g transform="matrix(1,0,0,1,-12.44,-4.54)">
            <path d="M281,41L281,33.7L282.6,33.7C283.337,33.676 284.074,33.726 284.8,33.85C285.733,34.075 286.503,34.733 286.87,35.62C287.099,36.167 287.211,36.757 287.2,37.35C287.211,37.94 287.099,38.526 286.87,39.07C286.647,39.561 286.303,39.988 285.87,40.31C285.547,40.559 285.176,40.739 284.78,40.84C284.154,40.96 283.517,41.01 282.88,40.99L281,40.99L281,41ZM282.19,39.93L283.19,39.93C283.603,39.941 284.016,39.904 284.42,39.82C284.683,39.756 284.927,39.629 285.13,39.45C285.411,39.215 285.628,38.912 285.76,38.57C285.898,38.178 285.966,37.765 285.96,37.35C285.967,36.935 285.899,36.521 285.76,36.13C285.628,35.788 285.411,35.485 285.13,35.25C284.918,35.067 284.664,34.939 284.39,34.88C283.95,34.788 283.499,34.752 283.05,34.77L282.19,34.77L282.19,39.93Z" style="fill:white;fill-rule:nonzero;"/>
        </g>
        <g transform="matrix(1,0,0,1,-12.44,-4.54)">
            <path d="M12.44,41.09L12.44,11.75L18.87,11.75C21.824,11.654 24.78,11.865 27.69,12.38C29.313,12.771 30.838,13.493 32.17,14.5C33.868,15.802 35.195,17.526 36.02,19.5C36.94,21.717 37.389,24.101 37.34,26.5C37.368,28.851 36.912,31.183 36,33.35C35.167,35.319 33.841,37.041 32.15,38.35C30.848,39.342 29.357,40.06 27.77,40.46C25.256,40.962 22.692,41.173 20.13,41.09L12.44,41.09ZM17.21,36.77L21.21,36.77C22.889,36.828 24.569,36.677 26.21,36.32C27.24,36.043 28.193,35.537 29,34.84C30.112,33.888 30.971,32.675 31.5,31.31C32.08,29.736 32.362,28.067 32.33,26.39C32.362,24.716 32.08,23.051 31.5,21.48C30.971,20.112 30.113,18.896 29,17.94C28.125,17.227 27.099,16.721 26,16.46C24.239,16.109 22.445,15.955 20.65,16L17.21,16L17.21,36.77Z" style="fill:rgb(179,197,192);fill-rule:nonzero;"/>
        </g>
        <g transform="matrix(1,0,0,1,-12.44,-4.54)">
            <path d="M60.48,41.07L57.16,33.52L45.54,33.52L42.14,41.07L37.14,41.07L51.33,10.6L65.51,41.07L60.48,41.07ZM47.3,29.55L55.47,29.55L52.47,22.87C52.297,22.443 52.117,21.953 51.93,21.4C51.74,20.84 51.56,20.22 51.37,19.54C51.21,20.19 51.04,20.78 50.86,21.34C50.68,21.9 50.5,22.4 50.31,22.87L47.3,29.55Z" style="fill:rgb(179,197,192);fill-rule:nonzero;"/>
        </g>
        <g transform="matrix(1,0,0,1,-12.44,-4.54)">
            <rect x="68.84" y="11.75" width="4.77" height="29.32" style="fill:rgb(179,197,192);fill-rule:nonzero;"/>
        </g>
        <path d="M75.63,0L75.63,43.57" style="fill:none;fill-rule:nonzero;stroke:white;stroke-width:0.5px;"/>
    </g>
</svg>
