<svg width="7" height="8" viewBox="0 0 7 8" fill="none" xmlns="http://www.w3.org/2000/svg">
<path d="M7 2.776C6.99595 2.73925 6.98813 2.70305 6.97667 2.668V2.632C6.95797 2.59087 6.93303 2.55307 6.90278 2.52L4.56944 0.12C4.5373 0.0888865 4.50054 0.0632324 4.46056 0.044C4.44895 0.042304 4.43716 0.042304 4.42556 0.044C4.38605 0.0206965 4.34242 0.00573768 4.29722 0H2.72222C2.4128 0 2.11606 0.126428 1.89726 0.351472C1.67847 0.576516 1.55556 0.88174 1.55556 1.2V1.6H1.16667C0.857247 1.6 0.560501 1.72643 0.341709 1.95147C0.122916 2.17652 0 2.48174 0 2.8V6.8C0 7.11826 0.122916 7.42348 0.341709 7.64853C0.560501 7.87357 0.857247 8 1.16667 8H4.27778C4.5872 8 4.88394 7.87357 5.10274 7.64853C5.32153 7.42348 5.44444 7.11826 5.44444 6.8V6.4H5.83333C6.14275 6.4 6.4395 6.27357 6.65829 6.04853C6.87708 5.82348 7 5.51826 7 5.2V2.8C7 2.8 7 2.8 7 2.776ZM4.66667 1.364L5.67389 2.4H5.05556C4.95242 2.4 4.8535 2.35786 4.78057 2.28284C4.70764 2.20783 4.66667 2.10609 4.66667 2V1.364ZM4.66667 6.8C4.66667 6.90609 4.62569 7.00783 4.55276 7.08284C4.47983 7.15786 4.38092 7.2 4.27778 7.2H1.16667C1.06353 7.2 0.964612 7.15786 0.891681 7.08284C0.81875 7.00783 0.777778 6.90609 0.777778 6.8V2.8C0.777778 2.69391 0.81875 2.59217 0.891681 2.51716C0.964612 2.44214 1.06353 2.4 1.16667 2.4H1.55556V5.2C1.55556 5.51826 1.67847 5.82348 1.89726 6.04853C2.11606 6.27357 2.4128 6.4 2.72222 6.4H4.66667V6.8ZM6.22222 5.2C6.22222 5.30609 6.18125 5.40783 6.10832 5.48284C6.03539 5.55786 5.93647 5.6 5.83333 5.6H2.72222C2.61908 5.6 2.52017 5.55786 2.44724 5.48284C2.37431 5.40783 2.33333 5.30609 2.33333 5.2V1.2C2.33333 1.09391 2.37431 0.992172 2.44724 0.917157C2.52017 0.842143 2.61908 0.8 2.72222 0.8H3.88889V2C3.88889 2.31826 4.01181 2.62348 4.2306 2.84853C4.44939 3.07357 4.74614 3.2 5.05556 3.2H6.22222V5.2Z" fill="white"/>
</svg>
